<svg width="24" height="24" viewBox="0 0 24 24" fill="none" xmlns="http://www.w3.org/2000/svg">
<path d="M10.8589 3.5124C11.2189 2.4072 12.7825 2.4072 13.1413 3.5124L14.4253 7.4628C14.5038 7.70339 14.6563 7.91302 14.861 8.06173C15.0657 8.21044 15.3123 8.29062 15.5653 8.2908H19.7197C20.8825 8.2908 21.3649 9.7788 20.4253 10.4628L17.0653 12.9036C16.8602 13.0524 16.7074 13.2624 16.6289 13.5034C16.5504 13.7444 16.5503 14.0041 16.6285 14.2452L17.9125 18.1956C18.2725 19.3008 17.0065 20.2212 16.0645 19.5372L12.7045 17.0964C12.4996 16.9476 12.2528 16.8675 11.9995 16.8675C11.7462 16.8675 11.4995 16.9476 11.2945 17.0964L7.93452 19.5372C6.99372 20.2212 5.72891 19.3008 6.08772 18.1956L7.37172 14.2452C7.44992 14.0041 7.44978 13.7444 7.37132 13.5034C7.29285 13.2624 7.14008 13.0524 6.93491 12.9036L3.57612 10.464C2.63652 9.78 3.12012 8.292 4.28172 8.292H8.43492C8.68817 8.29207 8.93496 8.21201 9.13994 8.06328C9.34493 7.91455 9.49761 7.70478 9.57612 7.464L10.8601 3.5136L10.8589 3.5124Z" fill="#A0AEC0"/>
</svg>
